# xmcd
#
# Track frame offsets:
#	182
#	10355
#	22362
#	33312
#	42620
#	52675
#	64347
#	73972
#	82982
#	93197
#	106422
#	116345
#	126330
#	136907
#	147927
#	156565
#
# Disc length: 2206 seconds
#
# Revision: 3
# Processed by: cddbd v1.5.1PL0 Copyright (c) Steve Scherf et al.
# Submitted via: audiograbber 1.83.01
#
DISCID=e6089c10
DTITLE=Little Richard - Bama Lama Loo
DYEAR=1988
DGENRE=Rock'n Roll
TTITLE0=Baby Face
TTITLE1=True Fine Mama
TTITLE2=Can't Believe You Wanna Leave
TTITLE3=Baby
TTITLE4=Bama Lama Bama Loo
TTITLE5=I'm Just A Lonely Guy
TTITLE6=Oh Why
TTITLE7=She Knows How To Rock
TTITLE8=Kansas City
TTITLE9=Shake A Hand
TTITLE10=All Night Long
TTITLE11=I Got It
TTITLE12=The Most Can Offer
TTITLE13=Annie Is Black
TTITLE14=Whole Lotta Shakin'
TTITLE15=Poor Boy Paul
EXTD=Bama Lama Bama Loo\n\nCeDe INTERNATIONAL\nCD 66062
EXTT0=
EXTT1=
EXTT2=
EXTT3=
EXTT4=
EXTT5=
EXTT6=
EXTT7=
EXTT8=
EXTT9=
EXTT10=
EXTT11=
EXTT12=
EXTT13=
EXTT14=
EXTT15=
PLAYORDER=
